<svg class="map-svg" viewBox="0 0 1000 500" xmlns="http://www.w3.org/2000/svg" role="img" aria-label="Türkiye haritası">
  <path class="turkey-shape" d="M 587.4,83.2 L 660.6,110.8 L 720,99.8 L 764,106.2 L 824.2,68.9 L 878.5,65.5 L 927.7,100.6 L 936.4,125.7 L 931.5,160.5 L 969.4,178.2 L 989.5,199.1 L 954.6,219.4 L 970.5,301.3 L 960.5,323.5 L 988.4,380.7 L 964,392.7 L 946,374.6 L 886.7,365.3 L 864.8,376.4 L 806.7,387.5 L 779.2,386.3 L 720.5,413.1 L 678.6,413.4 L 651.4,399.9 L 595.2,419.8 L 578.5,405.9 L 575.8,445.7 L 562.1,461.4 L 548.5,477 L 529.7,444.6 L 549,417.8 L 517.9,423.9 L 475.2,407.5 L 440.1,448.6 L 362.7,456.6 L 321.4,418.3 L 266.4,415.9 L 254.6,445.5 L 219.4,454 L 170,415.9 L 114.3,417.2 L 84.1,346.2 L 46.8,306.6 L 71.7,251 L 39.3,216.9 L 95.9,148.6 L 174.5,145.7 L 195.9,91.4 L 293.2,100.9 L 354.5,54.6 L 413.9,34.4 L 498.4,32.8 L 587.4,83.2 Z"/>
  <path class="turkey-shape" d="M 91.4,129.2 L 48.9,167.7 L 32.8,134.4 L 33.5,119.7 L 45.6,111.7 L 61.4,67 L 36.6,48.1 L 88.6,25.6 L 132.5,35.2 L 138.5,62.7 L 183.1,85.7 L 173.8,103.2 L 113.2,107.2 L 91.4,129.2 Z"/>
  <path class="map-arrow" d="M 182.6 106.6 Q 226.8 293.4 271.1 400.2"/>
  <path class="map-arrow" d="M 186.8 165.1 Q 229 322.6 271.1 400.2"/>
  <path class="map-arrow" d="M 88.9 291.2 Q 180 385.7 271.1 400.2"/>
  <path class="map-arrow" d="M 380.6 183.3 Q 325.8 331.8 271.1 400.2"/>
  <path class="map-arrow" d="M 595.2 365.5 Q 433.2 422.8 271.1 400.2"/>
  <path class="map-arrow" d="M 506.2 392.9 Q 388.6 436.6 271.1 400.2"/>
  <g class="map-marker"><circle class="map-city" cx="182.6" cy="106.6" r="5.5"/><text class="map-city-label" x="182.6" y="96.6" text-anchor="middle">İstanbul</text></g>
  <g class="map-marker"><circle class="map-city" cx="186.8" cy="165.1" r="5.5"/><text class="map-city-label" x="200" y="169" text-anchor="start">Bursa</text></g>
  <g class="map-marker"><circle class="map-city" cx="88.9" cy="291.2" r="5.5"/><text class="map-city-label" x="74" y="295" text-anchor="end">İzmir</text></g>
  <g class="map-marker"><circle class="map-city" cx="380.6" cy="183.3" r="5.5"/><text class="map-city-label" x="380.6" y="173.3" text-anchor="middle">Ankara</text></g>
  <g class="map-marker"><circle class="map-city" cx="595.2" cy="365.5" r="5.5"/><text class="map-city-label" x="610" y="369" text-anchor="start">Gaziantep</text></g>
  <g class="map-marker"><circle class="map-city" cx="506.2" cy="392.9" r="5.5"/><text class="map-city-label" x="506.2" y="410" text-anchor="middle">Adana</text></g>
  <circle class="map-antalya" cx="271.1" cy="400.2" r="9"/>
  <text class="map-antalya-label" x="271.1" y="424.2" text-anchor="middle">ANTALYA</text>
</svg>
